<mxfile>
    <diagram id="CXS81XuDlbYTwC02-f8r" name="Page-1">
        <mxGraphModel dx="929" dy="1237" grid="1" gridSize="1" guides="1" tooltips="1" connect="1" arrows="1" fold="1" page="1" pageScale="1" pageWidth="850" pageHeight="500" background="#F4F1DE" math="0" shadow="0">
            <root>
                <mxCell id="0"/>
                <mxCell id="1" parent="0"/>
                <mxCell id="385" value="" style="group;fontColor=#000000;" vertex="1" connectable="0" parent="1">
                    <mxGeometry x="36" y="-479" width="800.5" height="420" as="geometry"/>
                </mxCell>
                <mxCell id="386" value="&#10;&#10;&lt;span style=&quot;font-family: helvetica; font-size: 12px; font-style: normal; font-weight: 400; letter-spacing: normal; text-align: center; text-indent: 0px; text-transform: none; word-spacing: 0px; display: inline; float: none;&quot;&gt;Tenant&lt;/span&gt;&#10;&#10;" style="rounded=0;whiteSpace=wrap;html=1;labelBackgroundColor=none;fillColor=#F2CC8F;strokeColor=#E07A5F;fontColor=#000000;" vertex="1" parent="385">
                    <mxGeometry x="10" y="380" width="90" height="40" as="geometry"/>
                </mxCell>
                <mxCell id="387" value="Landlord" style="rounded=0;whiteSpace=wrap;html=1;labelBackgroundColor=none;fillColor=#F2CC8F;strokeColor=#E07A5F;fontColor=#000000;" vertex="1" parent="385">
                    <mxGeometry x="310" width="90" height="40" as="geometry"/>
                </mxCell>
                <mxCell id="388" value="User" style="rounded=0;whiteSpace=wrap;html=1;labelBackgroundColor=none;fillColor=#F2CC8F;strokeColor=#E07A5F;fontColor=#000000;" vertex="1" parent="385">
                    <mxGeometry y="200" width="90" height="40" as="geometry"/>
                </mxCell>
                <mxCell id="389" value="Display Properties" style="edgeStyle=orthogonalEdgeStyle;rounded=0;orthogonalLoop=1;jettySize=auto;html=1;exitX=0;exitY=0;exitDx=0;exitDy=0;entryX=0.75;entryY=0;entryDx=0;entryDy=0;labelBackgroundColor=none;strokeColor=#E07A5F;fontColor=#000000;" edge="1" parent="385" source="400" target="388">
                    <mxGeometry x="0.1339" y="-10" relative="1" as="geometry">
                        <mxPoint x="120" y="200" as="targetPoint"/>
                        <Array as="points">
                            <mxPoint x="306" y="180"/>
                            <mxPoint x="68" y="180"/>
                        </Array>
                        <mxPoint as="offset"/>
                    </mxGeometry>
                </mxCell>
                <mxCell id="390" value="Registration Form (Landlord/Tenant)" style="edgeStyle=orthogonalEdgeStyle;rounded=0;orthogonalLoop=1;jettySize=auto;html=1;entryX=1;entryY=0.25;entryDx=0;entryDy=0;labelBackgroundColor=none;strokeColor=#E07A5F;fontColor=#000000;" edge="1" parent="385" source="400" target="388">
                    <mxGeometry x="-0.1055" relative="1" as="geometry">
                        <Array as="points">
                            <mxPoint x="250" y="210"/>
                            <mxPoint x="250" y="210"/>
                        </Array>
                        <mxPoint as="offset"/>
                    </mxGeometry>
                </mxCell>
                <mxCell id="391" value="Registration Notification/Confirmation" style="edgeStyle=orthogonalEdgeStyle;rounded=0;orthogonalLoop=1;jettySize=auto;html=1;exitX=0;exitY=0.5;exitDx=0;exitDy=0;labelBackgroundColor=none;strokeColor=#E07A5F;fontColor=#000000;" edge="1" parent="385" source="400">
                    <mxGeometry relative="1" as="geometry">
                        <mxPoint x="90" y="240" as="targetPoint"/>
                        <Array as="points">
                            <mxPoint x="285" y="240"/>
                            <mxPoint x="90" y="240"/>
                        </Array>
                    </mxGeometry>
                </mxCell>
                <mxCell id="392" value="Notify" style="edgeStyle=orthogonalEdgeStyle;rounded=0;orthogonalLoop=1;jettySize=auto;html=1;entryX=1.002;entryY=0.422;entryDx=0;entryDy=0;exitX=0.5;exitY=1;exitDx=0;exitDy=0;entryPerimeter=0;labelBackgroundColor=none;strokeColor=#E07A5F;fontColor=#000000;" edge="1" parent="385" source="400" target="386">
                    <mxGeometry x="0.7176" y="5" relative="1" as="geometry">
                        <Array as="points">
                            <mxPoint x="355" y="397"/>
                            <mxPoint x="100" y="397"/>
                        </Array>
                        <mxPoint as="offset"/>
                    </mxGeometry>
                </mxCell>
                <mxCell id="393" value="Validate Account (SRS)" style="edgeStyle=orthogonalEdgeStyle;rounded=0;orthogonalLoop=1;jettySize=auto;html=1;entryX=0.89;entryY=-0.012;entryDx=0;entryDy=0;entryPerimeter=0;labelBackgroundColor=none;strokeColor=#E07A5F;fontColor=#000000;" edge="1" parent="385" source="400" target="386">
                    <mxGeometry x="0.538" y="4" relative="1" as="geometry">
                        <Array as="points">
                            <mxPoint x="330" y="368"/>
                            <mxPoint x="90" y="368"/>
                        </Array>
                        <mxPoint as="offset"/>
                    </mxGeometry>
                </mxCell>
                <mxCell id="394" value="Show Insterested Properties" style="edgeStyle=orthogonalEdgeStyle;rounded=0;orthogonalLoop=1;jettySize=auto;html=1;entryX=1;entryY=1;entryDx=0;entryDy=0;exitX=0.673;exitY=0.973;exitDx=0;exitDy=0;exitPerimeter=0;labelBackgroundColor=none;strokeColor=#E07A5F;fontColor=#000000;" edge="1" parent="385" source="400" target="386">
                    <mxGeometry x="0.6122" y="3" relative="1" as="geometry">
                        <mxPoint x="390" y="290" as="sourcePoint"/>
                        <Array as="points">
                            <mxPoint x="379" y="290"/>
                            <mxPoint x="380" y="290"/>
                            <mxPoint x="380" y="420"/>
                        </Array>
                        <mxPoint as="offset"/>
                    </mxGeometry>
                </mxCell>
                <mxCell id="395" value="Applied Rent Properties" style="edgeStyle=orthogonalEdgeStyle;rounded=0;orthogonalLoop=1;jettySize=auto;html=1;entryX=0.75;entryY=0;entryDx=0;entryDy=0;exitX=0.262;exitY=0.937;exitDx=0;exitDy=0;exitPerimeter=0;labelBackgroundColor=none;strokeColor=#E07A5F;fontColor=#000000;" edge="1" parent="385" source="400" target="386">
                    <mxGeometry x="0.4359" y="-2" relative="1" as="geometry">
                        <mxPoint x="250" y="280" as="sourcePoint"/>
                        <Array as="points">
                            <mxPoint x="322" y="355"/>
                            <mxPoint x="78" y="355"/>
                        </Array>
                        <mxPoint as="offset"/>
                    </mxGeometry>
                </mxCell>
                <mxCell id="396" style="edgeStyle=orthogonalEdgeStyle;rounded=0;orthogonalLoop=1;jettySize=auto;html=1;exitX=0.656;exitY=0.036;exitDx=0;exitDy=0;entryX=0.75;entryY=1;entryDx=0;entryDy=0;exitPerimeter=0;labelBackgroundColor=none;strokeColor=#E07A5F;fontColor=#000000;" edge="1" parent="385" source="400" target="387">
                    <mxGeometry relative="1" as="geometry">
                        <Array as="points">
                            <mxPoint x="377" y="180"/>
                            <mxPoint x="377" y="110"/>
                            <mxPoint x="378" y="110"/>
                        </Array>
                    </mxGeometry>
                </mxCell>
                <mxCell id="397" value="Display Statistics" style="edgeLabel;html=1;align=center;verticalAlign=middle;resizable=0;points=[];labelBackgroundColor=none;fontColor=#000000;" vertex="1" connectable="0" parent="396">
                    <mxGeometry x="0.6625" y="-1" relative="1" as="geometry">
                        <mxPoint x="16.490000000000002" y="-0.16000000000000014" as="offset"/>
                    </mxGeometry>
                </mxCell>
                <mxCell id="398" value="Notify Tenant's Report" style="edgeStyle=orthogonalEdgeStyle;rounded=0;jumpStyle=none;orthogonalLoop=1;jettySize=auto;html=1;entryX=0.631;entryY=1.005;entryDx=0;entryDy=0;entryPerimeter=0;labelBackgroundColor=none;strokeColor=#E07A5F;fontColor=#000000;" edge="1" parent="385" source="400" target="387">
                    <mxGeometry x="0.4616" y="-29" relative="1" as="geometry">
                        <Array as="points">
                            <mxPoint x="367" y="110"/>
                        </Array>
                        <mxPoint as="offset"/>
                    </mxGeometry>
                </mxCell>
                <mxCell id="399" style="edgeStyle=orthogonalEdgeStyle;rounded=0;jumpStyle=none;orthogonalLoop=1;jettySize=auto;html=1;labelBackgroundColor=none;strokeColor=#E07A5F;fontColor=#000000;" edge="1" parent="385" source="400">
                    <mxGeometry relative="1" as="geometry">
                        <mxPoint x="355" y="39" as="targetPoint"/>
                    </mxGeometry>
                </mxCell>
                <mxCell id="400" value="Rentahan &lt;br&gt;Web-Application" style="shape=ellipse;html=1;dashed=0;whitespace=wrap;perimeter=ellipsePerimeter;align=center;labelBackgroundColor=none;fillColor=#F2CC8F;strokeColor=#E07A5F;fontColor=#000000;" vertex="1" parent="385">
                    <mxGeometry x="285" y="180" width="140" height="90" as="geometry"/>
                </mxCell>
                <mxCell id="401" value="" style="edgeStyle=orthogonalEdgeStyle;rounded=0;orthogonalLoop=1;jettySize=auto;html=1;entryX=0.572;entryY=1.016;entryDx=0;entryDy=0;entryPerimeter=0;exitX=1;exitY=0.75;exitDx=0;exitDy=0;labelBackgroundColor=none;strokeColor=#E07A5F;fontColor=#000000;" edge="1" parent="385" source="386" target="400">
                    <mxGeometry x="-0.1374" y="30" relative="1" as="geometry">
                        <mxPoint x="410" y="290" as="targetPoint"/>
                        <Array as="points">
                            <mxPoint x="365" y="410"/>
                        </Array>
                        <mxPoint as="offset"/>
                    </mxGeometry>
                </mxCell>
                <mxCell id="402" value="Report Properties/ Issues/ Amneties" style="edgeLabel;html=1;align=center;verticalAlign=middle;resizable=0;points=[];labelBackgroundColor=none;fontColor=#000000;" vertex="1" connectable="0" parent="401">
                    <mxGeometry x="-0.2214" y="1" relative="1" as="geometry">
                        <mxPoint x="31.349999999999994" y="-0.97" as="offset"/>
                    </mxGeometry>
                </mxCell>
                <mxCell id="403" style="edgeStyle=orthogonalEdgeStyle;rounded=0;orthogonalLoop=1;jettySize=auto;html=1;exitX=0.991;exitY=0.09;exitDx=0;exitDy=0;entryX=0.399;entryY=0.987;entryDx=0;entryDy=0;entryPerimeter=0;exitPerimeter=0;labelBackgroundColor=none;strokeColor=#E07A5F;fontColor=#000000;" edge="1" parent="385" source="386" target="400">
                    <mxGeometry relative="1" as="geometry">
                        <Array as="points">
                            <mxPoint x="341" y="384"/>
                        </Array>
                    </mxGeometry>
                </mxCell>
                <mxCell id="404" value="Mark Interest on Properties" style="edgeLabel;html=1;align=center;verticalAlign=middle;resizable=0;points=[];labelBackgroundColor=none;fontColor=#000000;" vertex="1" connectable="0" parent="403">
                    <mxGeometry x="-0.0595" relative="1" as="geometry">
                        <mxPoint x="15.38" y="1.38" as="offset"/>
                    </mxGeometry>
                </mxCell>
                <mxCell id="405" value="Apply for Rent" style="edgeStyle=orthogonalEdgeStyle;rounded=0;orthogonalLoop=1;jettySize=auto;html=1;entryX=0.175;entryY=0.884;entryDx=0;entryDy=0;entryPerimeter=0;labelBackgroundColor=none;strokeColor=#E07A5F;fontColor=#000000;" edge="1" parent="385" source="386" target="400">
                    <mxGeometry x="0.4151" y="3" relative="1" as="geometry">
                        <mxPoint x="125" y="260" as="targetPoint"/>
                        <Array as="points">
                            <mxPoint x="55" y="340"/>
                            <mxPoint x="310" y="340"/>
                            <mxPoint x="310" y="260"/>
                        </Array>
                        <mxPoint as="offset"/>
                    </mxGeometry>
                </mxCell>
                <mxCell id="406" value="Approve Tenant" style="edgeStyle=orthogonalEdgeStyle;rounded=0;orthogonalLoop=1;jettySize=auto;html=1;entryX=0.41;entryY=0.015;entryDx=0;entryDy=0;entryPerimeter=0;labelBackgroundColor=none;strokeColor=#E07A5F;fontColor=#000000;" edge="1" parent="385" source="387" target="400">
                    <mxGeometry x="0.5988" y="-1" relative="1" as="geometry">
                        <Array as="points">
                            <mxPoint x="342" y="110"/>
                            <mxPoint x="342" y="110"/>
                        </Array>
                        <mxPoint as="offset"/>
                    </mxGeometry>
                </mxCell>
                <mxCell id="407" value="Report Tenant" style="edgeStyle=orthogonalEdgeStyle;rounded=0;jumpStyle=none;orthogonalLoop=1;jettySize=auto;html=1;entryX=0.324;entryY=0.033;entryDx=0;entryDy=0;entryPerimeter=0;labelBackgroundColor=none;strokeColor=#E07A5F;fontColor=#000000;" edge="1" parent="385" source="387" target="400">
                    <mxGeometry x="0.7623" y="-6" relative="1" as="geometry">
                        <Array as="points">
                            <mxPoint x="330" y="84"/>
                            <mxPoint x="330" y="84"/>
                        </Array>
                        <mxPoint as="offset"/>
                    </mxGeometry>
                </mxCell>
                <mxCell id="408" value="Browse(Filter) Properties" style="edgeStyle=orthogonalEdgeStyle;rounded=0;orthogonalLoop=1;jettySize=auto;html=1;entryX=0;entryY=0;entryDx=0;entryDy=0;exitX=1;exitY=0;exitDx=0;exitDy=0;labelBackgroundColor=none;strokeColor=#E07A5F;fontColor=#000000;" edge="1" parent="385" source="388" target="400">
                    <mxGeometry x="-0.129" relative="1" as="geometry">
                        <Array as="points">
                            <mxPoint x="90" y="193"/>
                        </Array>
                        <mxPoint as="offset"/>
                    </mxGeometry>
                </mxCell>
                <mxCell id="409" value="Register for Tenant/Landlord" style="edgeStyle=orthogonalEdgeStyle;rounded=0;orthogonalLoop=1;jettySize=auto;html=1;entryX=0;entryY=0.5;entryDx=0;entryDy=0;exitX=1;exitY=0.75;exitDx=0;exitDy=0;labelBackgroundColor=none;strokeColor=#E07A5F;fontColor=#000000;" edge="1" parent="385" source="388" target="400">
                    <mxGeometry relative="1" as="geometry">
                        <Array as="points">
                            <mxPoint x="90" y="225"/>
                        </Array>
                    </mxGeometry>
                </mxCell>
                <mxCell id="410" value="CRUD Properties with Tenant" style="edgeStyle=orthogonalEdgeStyle;rounded=0;orthogonalLoop=1;jettySize=auto;html=1;labelBackgroundColor=none;jumpStyle=none;strokeColor=#E07A5F;fontColor=#000000;" edge="1" parent="385" source="387" target="400">
                    <mxGeometry x="0.1286" y="5" relative="1" as="geometry">
                        <mxPoint as="offset"/>
                    </mxGeometry>
                </mxCell>
                <mxCell id="411" value="Approve Landlord Application" style="edgeStyle=orthogonalEdgeStyle;rounded=0;jumpStyle=none;orthogonalLoop=1;jettySize=auto;html=1;labelBackgroundColor=none;strokeColor=#E07A5F;fontColor=#000000;" edge="1" parent="385" source="413">
                    <mxGeometry x="0.3372" y="-6" relative="1" as="geometry">
                        <mxPoint x="425" y="225" as="targetPoint"/>
                        <Array as="points">
                            <mxPoint x="463" y="225"/>
                            <mxPoint x="463" y="225"/>
                        </Array>
                        <mxPoint as="offset"/>
                    </mxGeometry>
                </mxCell>
                <mxCell id="412" value="CMS" style="edgeStyle=orthogonalEdgeStyle;rounded=0;jumpStyle=none;orthogonalLoop=1;jettySize=auto;html=1;exitX=0;exitY=0.25;exitDx=0;exitDy=0;entryX=0.967;entryY=0.347;entryDx=0;entryDy=0;entryPerimeter=0;labelBackgroundColor=none;strokeColor=#E07A5F;fontColor=#000000;" edge="1" parent="385" source="413" target="400">
                    <mxGeometry x="0.3655" y="-6" relative="1" as="geometry">
                        <mxPoint x="-1" as="offset"/>
                    </mxGeometry>
                </mxCell>
                <mxCell id="413" value="&lt;font&gt;Admin&lt;/font&gt;" style="html=1;dashed=0;whitespace=wrap;labelBackgroundColor=none;align=center;fillColor=#F2CC8F;strokeColor=#E07A5F;fontColor=#000000;" vertex="1" parent="385">
                    <mxGeometry x="681.5" y="199" width="119" height="50" as="geometry"/>
                </mxCell>
                <mxCell id="414" value="Display for Pending &lt;br&gt;Landlord Application" style="edgeStyle=orthogonalEdgeStyle;rounded=0;jumpStyle=none;orthogonalLoop=1;jettySize=auto;html=1;entryX=0;entryY=0.75;entryDx=0;entryDy=0;labelBackgroundColor=none;strokeColor=#E07A5F;fontColor=#000000;" edge="1" parent="385" source="400" target="413">
                    <mxGeometry x="0.4707" y="2" relative="1" as="geometry">
                        <Array as="points">
                            <mxPoint x="504" y="236"/>
                        </Array>
                        <mxPoint as="offset"/>
                    </mxGeometry>
                </mxCell>
                <mxCell id="415" value="Display List of Users (Tenant/Landlord)" style="edgeStyle=orthogonalEdgeStyle;rounded=0;jumpStyle=none;orthogonalLoop=1;jettySize=auto;html=1;entryX=0;entryY=1;entryDx=0;entryDy=0;labelBackgroundColor=none;strokeColor=#E07A5F;fontColor=#000000;" edge="1" parent="385" source="400" target="413">
                    <mxGeometry x="0.465" y="-8" relative="1" as="geometry">
                        <Array as="points">
                            <mxPoint x="680" y="249"/>
                        </Array>
                        <mxPoint as="offset"/>
                    </mxGeometry>
                </mxCell>
            </root>
        </mxGraphModel>
    </diagram>
</mxfile>